<svg xmlns="http://www.w3.org/2000/svg" viewBox="0 0 1200 900">
  <defs>
    <!-- Gradientes -->
    <linearGradient id="purpleGrad" x1="0%" y1="0%" x2="100%" y2="100%">
      <stop offset="0%" style="stop-color:#8B0088"/>
      <stop offset="100%" style="stop-color:#6B006B"/>
    </linearGradient>
    <linearGradient id="blueGrad" x1="0%" y1="0%" x2="100%" y2="100%">
      <stop offset="0%" style="stop-color:#007AFF"/>
      <stop offset="100%" style="stop-color:#0055CC"/>
    </linearGradient>
    <linearGradient id="greenGrad" x1="0%" y1="0%" x2="100%" y2="100%">
      <stop offset="0%" style="stop-color:#34C759"/>
      <stop offset="100%" style="stop-color:#248A3D"/>
    </linearGradient>
    <linearGradient id="orangeGrad" x1="0%" y1="0%" x2="100%" y2="100%">
      <stop offset="0%" style="stop-color:#FF9500"/>
      <stop offset="100%" style="stop-color:#CC7700"/>
    </linearGradient>
    <linearGradient id="redGrad" x1="0%" y1="0%" x2="100%" y2="100%">
      <stop offset="0%" style="stop-color:#FF3B30"/>
      <stop offset="100%" style="stop-color:#CC2F26"/>
    </linearGradient>
    <linearGradient id="darkGrad" x1="0%" y1="0%" x2="100%" y2="100%">
      <stop offset="0%" style="stop-color:#2C2C2E"/>
      <stop offset="100%" style="stop-color:#1C1C1E"/>
    </linearGradient>
    
    <!-- Sombra -->
    <filter id="shadow" x="-20%" y="-20%" width="140%" height="140%">
      <feDropShadow dx="3" dy="3" stdDeviation="5" flood-color="#000" flood-opacity="0.4"/>
    </filter>
    
    <!-- Flecha -->
    <marker id="arrowBlue" markerWidth="10" markerHeight="10" refX="9" refY="3" orient="auto" markerUnits="strokeWidth">
      <path d="M0,0 L0,6 L9,3 z" fill="#007AFF"/>
    </marker>
    <marker id="arrowGreen" markerWidth="10" markerHeight="10" refX="9" refY="3" orient="auto" markerUnits="strokeWidth">
      <path d="M0,0 L0,6 L9,3 z" fill="#34C759"/>
    </marker>
    <marker id="arrowOrange" markerWidth="10" markerHeight="10" refX="9" refY="3" orient="auto" markerUnits="strokeWidth">
      <path d="M0,0 L0,6 L9,3 z" fill="#FF9500"/>
    </marker>
  </defs>
  
  <!-- Fondo -->
  <rect width="1200" height="900" fill="#000"/>
  
  <!-- Título -->
  <text x="600" y="45" fill="white" font-family="Arial, sans-serif" font-size="28" font-weight="bold" text-anchor="middle">
    📱 Flujo de Navegación - Sistema de Gestión Académica
  </text>
  <text x="600" y="70" fill="#888" font-family="Arial, sans-serif" font-size="14" text-anchor="middle">
    Arquitectura de Navegación de la Aplicación Flutter
  </text>
  
  <!-- ============ PANTALLA 1: SPLASH ============ -->
  <g transform="translate(100, 120)">
    <rect x="0" y="0" width="200" height="280" rx="20" fill="url(#purpleGrad)" filter="url(#shadow)"/>
    <rect x="10" y="10" width="180" height="260" rx="15" fill="#1C1C1E" stroke="#8B0088" stroke-width="2"/>
    
    <!-- Contenido Splash -->
    <circle cx="100" cy="80" r="35" fill="#8B0088" opacity="0.3"/>
    <text x="100" y="88" fill="white" font-size="30" text-anchor="middle">🎓</text>
    
    <text x="100" y="140" fill="white" font-family="Arial" font-size="12" font-weight="bold" text-anchor="middle">Sistema de Gestión</text>
    <text x="100" y="155" fill="white" font-family="Arial" font-size="12" font-weight="bold" text-anchor="middle">Académica</text>
    
    <rect x="30" y="180" width="140" height="6" rx="3" fill="#2C2C2E"/>
    <rect x="30" y="180" width="100" height="6" rx="3" fill="url(#purpleGrad)"/>
    
    <text x="100" y="210" fill="#888" font-family="Arial" font-size="10" text-anchor="middle">Cargando...</text>
    
    <rect x="60" y="230" width="80" height="20" rx="10" fill="url(#purpleGrad)"/>
    <text x="100" y="244" fill="white" font-family="Arial" font-size="10" text-anchor="middle">v1.0.0</text>
    
    <!-- Etiqueta -->
    <rect x="45" y="-15" width="110" height="25" rx="5" fill="url(#purpleGrad)"/>
    <text x="100" y="2" fill="white" font-family="Arial" font-size="11" font-weight="bold" text-anchor="middle">SPLASH SCREEN</text>
  </g>
  
  <!-- Flecha 1→2 -->
  <path d="M310 260 Q380 260 380 260 L440 260" stroke="#007AFF" stroke-width="3" fill="none" marker-end="url(#arrowBlue)"/>
  <text x="375" y="245" fill="#007AFF" font-family="Arial" font-size="10" text-anchor="middle">Auto</text>
  <text x="375" y="258" fill="#007AFF" font-family="Arial" font-size="10" text-anchor="middle">2.5s</text>
  
  <!-- ============ PANTALLA 2: HOME ============ -->
  <g transform="translate(450, 120)">
    <rect x="0" y="0" width="200" height="280" rx="20" fill="url(#blueGrad)" filter="url(#shadow)"/>
    <rect x="10" y="10" width="180" height="260" rx="15" fill="#1C1C1E" stroke="#007AFF" stroke-width="2"/>
    
    <!-- Header -->
    <rect x="20" y="25" width="160" height="50" rx="8" fill="#1C3A5A"/>
    <text x="100" y="45" fill="white" font-family="Arial" font-size="9" text-anchor="middle">🎓 Ing. Civil Informática</text>
    <text x="100" y="60" fill="#888" font-family="Arial" font-size="8" text-anchor="middle">Universidad Andrés Bello</text>
    
    <!-- Grid de Trimestres -->
    <g transform="translate(20, 85)">
      <!-- Fila 1 -->
      <rect x="0" y="0" width="35" height="30" rx="5" fill="#2C2C2E" stroke="#3A3A3C"/>
      <text x="17" y="20" fill="#007AFF" font-family="Arial" font-size="14" font-weight="bold" text-anchor="middle">1</text>
      <rect x="40" y="0" width="35" height="30" rx="5" fill="#2C2C2E" stroke="#3A3A3C"/>
      <text x="57" y="20" fill="#007AFF" font-family="Arial" font-size="14" font-weight="bold" text-anchor="middle">2</text>
      <rect x="80" y="0" width="35" height="30" rx="5" fill="#2C2C2E" stroke="#3A3A3C"/>
      <text x="97" y="20" fill="#007AFF" font-family="Arial" font-size="14" font-weight="bold" text-anchor="middle">3</text>
      <rect x="120" y="0" width="35" height="30" rx="5" fill="#2C2C2E" stroke="#3A3A3C"/>
      <text x="137" y="20" fill="#007AFF" font-family="Arial" font-size="14" font-weight="bold" text-anchor="middle">4</text>
      
      <!-- Fila 2 -->
      <rect x="0" y="35" width="35" height="30" rx="5" fill="#2C2C2E" stroke="#3A3A3C"/>
      <text x="17" y="55" fill="#007AFF" font-family="Arial" font-size="14" font-weight="bold" text-anchor="middle">5</text>
      <rect x="40" y="35" width="35" height="30" rx="5" fill="#2C2C2E" stroke="#3A3A3C"/>
      <text x="57" y="55" fill="#007AFF" font-family="Arial" font-size="14" font-weight="bold" text-anchor="middle">6</text>
      <rect x="80" y="35" width="35" height="30" rx="5" fill="#007AFF" stroke="#007AFF"/>
      <text x="97" y="55" fill="white" font-family="Arial" font-size="14" font-weight="bold" text-anchor="middle">7</text>
      <rect x="120" y="35" width="35" height="30" rx="5" fill="#2C2C2E" stroke="#3A3A3C"/>
      <text x="137" y="55" fill="#007AFF" font-family="Arial" font-size="14" font-weight="bold" text-anchor="middle">8</text>
      
      <!-- Fila 3 -->
      <rect x="20" y="70" width="35" height="30" rx="5" fill="#2C2C2E" stroke="#3A3A3C"/>
      <text x="37" y="90" fill="#007AFF" font-family="Arial" font-size="14" font-weight="bold" text-anchor="middle">9</text>
      <rect x="60" y="70" width="55" height="30" rx="5" fill="#2C2C2E" stroke="#3A3A3C"/>
      <text x="87" y="90" fill="#007AFF" font-family="Arial" font-size="14" font-weight="bold" text-anchor="middle">10</text>
    </g>
    
    <!-- Estadísticas -->
    <rect x="20" y="210" width="160" height="45" rx="8" fill="#2C2C2E"/>
    <text x="50" y="228" fill="#34C759" font-family="Arial" font-size="9" text-anchor="middle">✓ 5</text>
    <text x="50" y="242" fill="#888" font-family="Arial" font-size="7" text-anchor="middle">Completadas</text>
    <text x="100" y="228" fill="#FF9500" font-family="Arial" font-size="9" text-anchor="middle">⏳ 38</text>
    <text x="100" y="242" fill="#888" font-family="Arial" font-size="7" text-anchor="middle">Pendientes</text>
    <text x="150" y="228" fill="#007AFF" font-family="Arial" font-size="9" text-anchor="middle">📈 12%</text>
    <text x="150" y="242" fill="#888" font-family="Arial" font-size="7" text-anchor="middle">Progreso</text>
    
    <!-- Etiqueta -->
    <rect x="55" y="-15" width="90" height="25" rx="5" fill="url(#blueGrad)"/>
    <text x="100" y="2" fill="white" font-family="Arial" font-size="11" font-weight="bold" text-anchor="middle">HOME PAGE</text>
  </g>
  
  <!-- Flecha 2→3 -->
  <path d="M660 260 Q730 260 730 260 L790 260" stroke="#007AFF" stroke-width="3" fill="none" marker-end="url(#arrowBlue)"/>
  <text x="725" y="245" fill="#007AFF" font-family="Arial" font-size="10" text-anchor="middle">Tap</text>
  <text x="725" y="258" fill="#007AFF" font-family="Arial" font-size="10" text-anchor="middle">Trimestre</text>
  
  <!-- ============ PANTALLA 3: ASIGNATURAS ============ -->
  <g transform="translate(800, 120)">
    <rect x="0" y="0" width="200" height="280" rx="20" fill="url(#blueGrad)" filter="url(#shadow)"/>
    <rect x="10" y="10" width="180" height="260" rx="15" fill="#1C1C1E" stroke="#007AFF" stroke-width="2"/>
    
    <!-- Header -->
    <rect x="20" y="25" width="160" height="30" rx="5" fill="#2C2C2E"/>
    <text x="35" y="44" fill="#888" font-family="Arial" font-size="12">←</text>
    <text x="100" y="44" fill="white" font-family="Arial" font-size="11" font-weight="bold" text-anchor="middle">Trimestre 7</text>
    
    <!-- Lista de Asignaturas -->
    <g transform="translate(20, 65)">
      <!-- Asignatura 1 -->
      <rect x="0" y="0" width="160" height="45" rx="8" fill="#2C2C2E"/>
      <rect x="8" y="8" width="30" height="30" rx="5" fill="#34C759" opacity="0.2"/>
      <text x="23" y="28" fill="#34C759" font-family="Arial" font-size="8" font-weight="bold" text-anchor="middle">AACD</text>
      <text x="75" y="18" fill="#007AFF" font-family="Arial" font-size="7">AACD101</text>
      <text x="75" y="30" fill="white" font-family="Arial" font-size="7">Taller Innovación I</text>
      <rect x="125" y="12" width="28" height="18" rx="9" fill="#34C759"/>
      <text x="139" y="24" fill="white" font-family="Arial" font-size="8" font-weight="bold" text-anchor="middle">6,2</text>
      
      <!-- Asignatura 2 -->
      <rect x="0" y="50" width="160" height="45" rx="8" fill="#2C2C2E"/>
      <rect x="8" y="58" width="30" height="30" rx="5" fill="#007AFF" opacity="0.2"/>
      <text x="23" y="78" fill="#007AFF" font-family="Arial" font-size="8" font-weight="bold" text-anchor="middle">ACIF</text>
      <text x="75" y="68" fill="#007AFF" font-family="Arial" font-size="7">ACIF103</text>
      <text x="75" y="80" fill="white" font-family="Arial" font-size="7">Optimización</text>
      <rect x="125" y="62" width="28" height="18" rx="9" fill="#888"/>
      <text x="139" y="74" fill="white" font-family="Arial" font-size="8" font-weight="bold" text-anchor="middle">S/I</text>
      
      <!-- Asignatura 3 -->
      <rect x="0" y="100" width="160" height="45" rx="8" fill="#007AFF" opacity="0.3" stroke="#007AFF" stroke-width="2"/>
      <rect x="8" y="108" width="30" height="30" rx="5" fill="#007AFF" opacity="0.2"/>
      <text x="23" y="128" fill="#007AFF" font-family="Arial" font-size="8" font-weight="bold" text-anchor="middle">APTC</text>
      <text x="75" y="118" fill="#007AFF" font-family="Arial" font-size="7">APTC106</text>
      <text x="75" y="130" fill="white" font-family="Arial" font-size="7">Taller Web y Móvil</text>
      <rect x="125" y="112" width="28" height="18" rx="9" fill="#888"/>
      <text x="139" y="124" fill="white" font-family="Arial" font-size="8" font-weight="bold" text-anchor="middle">S/I</text>
      <text x="170" y="128" fill="#007AFF" font-family="Arial" font-size="12">→</text>
    </g>
    
    <!-- Footer info -->
    <text x="100" y="255" fill="#888" font-family="Arial" font-size="8" text-anchor="middle">4 asignaturas • 42 créditos</text>
    
    <!-- Etiqueta -->
    <rect x="40" y="-15" width="120" height="25" rx="5" fill="url(#blueGrad)"/>
    <text x="100" y="2" fill="white" font-family="Arial" font-size="11" font-weight="bold" text-anchor="middle">ASIGNATURAS</text>
  </g>
  
  <!-- Flecha 3→4 (curva hacia abajo) -->
  <path d="M900 410 Q900 480 900 520 L900 550" stroke="#007AFF" stroke-width="3" fill="none" marker-end="url(#arrowBlue)"/>
  <text x="920" y="480" fill="#007AFF" font-family="Arial" font-size="10">Tap Asignatura</text>
  
  <!-- ============ PANTALLA 4: CALCULADORA ============ -->
  <g transform="translate(800, 560)">
    <rect x="0" y="0" width="200" height="300" rx="20" fill="url(#blueGrad)" filter="url(#shadow)"/>
    <rect x="10" y="10" width="180" height="280" rx="15" fill="#1C1C1E" stroke="#007AFF" stroke-width="2"/>
    
    <!-- Header -->
    <rect x="20" y="25" width="160" height="35" rx="5" fill="#2C2C2E"/>
    <text x="35" y="42" fill="#888" font-family="Arial" font-size="12">←</text>
    <text x="100" y="38" fill="white" font-family="Arial" font-size="10" font-weight="bold" text-anchor="middle">APTC106</text>
    <text x="100" y="50" fill="#888" font-family="Arial" font-size="7" text-anchor="middle">Taller Web y Móvil</text>
    
    <!-- Selector cantidad -->
    <rect x="20" y="70" width="160" height="30" rx="5" fill="#2C2C2E"/>
    <text x="30" y="89" fill="#007AFF" font-family="Arial" font-size="10">📊</text>
    <text x="80" y="89" fill="white" font-family="Arial" font-size="9">Cantidad:</text>
    <rect x="130" y="75" width="40" height="20" rx="3" fill="#3A3A3C"/>
    <text x="150" y="89" fill="white" font-family="Arial" font-size="10" font-weight="bold" text-anchor="middle">3 ▼</text>
    
    <!-- Campos de notas -->
    <g transform="translate(20, 110)">
      <!-- Nota 1 -->
      <rect x="0" y="0" width="160" height="35" rx="5" fill="#2C2C2E"/>
      <rect x="5" y="5" width="25" height="25" rx="3" fill="#007AFF" opacity="0.2"/>
      <text x="17" y="22" fill="#007AFF" font-family="Arial" font-size="11" font-weight="bold" text-anchor="middle">1</text>
      <rect x="35" y="5" width="70" height="25" rx="3" fill="#3A3A3C"/>
      <text x="70" y="22" fill="white" font-family="Arial" font-size="10" text-anchor="middle">6,5</text>
      <rect x="110" y="5" width="45" height="25" rx="3" fill="#3A3A3C"/>
      <text x="132" y="22" fill="white" font-family="Arial" font-size="10" text-anchor="middle">30%</text>
      
      <!-- Nota 2 -->
      <rect x="0" y="40" width="160" height="35" rx="5" fill="#2C2C2E"/>
      <rect x="5" y="45" width="25" height="25" rx="3" fill="#007AFF" opacity="0.2"/>
      <text x="17" y="62" fill="#007AFF" font-family="Arial" font-size="11" font-weight="bold" text-anchor="middle">2</text>
      <rect x="35" y="45" width="70" height="25" rx="3" fill="#3A3A3C"/>
      <text x="70" y="62" fill="white" font-family="Arial" font-size="10" text-anchor="middle">6,0</text>
      <rect x="110" y="45" width="45" height="25" rx="3" fill="#3A3A3C"/>
      <text x="132" y="62" fill="white" font-family="Arial" font-size="10" text-anchor="middle">40%</text>
      
      <!-- Nota 3 -->
      <rect x="0" y="80" width="160" height="35" rx="5" fill="#2C2C2E"/>
      <rect x="5" y="85" width="25" height="25" rx="3" fill="#007AFF" opacity="0.2"/>
      <text x="17" y="102" fill="#007AFF" font-family="Arial" font-size="11" font-weight="bold" text-anchor="middle">3</text>
      <rect x="35" y="85" width="70" height="25" rx="3" fill="#3A3A3C"/>
      <text x="70" y="102" fill="#888" font-family="Arial" font-size="10" text-anchor="middle">Nota</text>
      <rect x="110" y="85" width="45" height="25" rx="3" fill="#3A3A3C"/>
      <text x="132" y="102" fill="#888" font-family="Arial" font-size="10" text-anchor="middle">%</text>
    </g>
    
    <!-- Botones -->
    <rect x="20" y="235" width="110" height="25" rx="5" fill="url(#blueGrad)"/>
    <text x="75" y="252" fill="white" font-family="Arial" font-size="9" font-weight="bold" text-anchor="middle">🧮 Calcular</text>
    <rect x="135" y="235" width="45" height="25" rx="5" fill="#3A3A3C"/>
    <text x="157" y="252" fill="#007AFF" font-family="Arial" font-size="12" text-anchor="middle">🔄</text>
    
    <rect x="20" y="265" width="160" height="20" rx="5" fill="none" stroke="#FF9500" stroke-width="1.5"/>
    <text x="100" y="279" fill="#FF9500" font-family="Arial" font-size="8" text-anchor="middle">💾 Guardar sin Calcular</text>
    
    <!-- Etiqueta -->
    <rect x="45" y="-15" width="110" height="25" rx="5" fill="url(#blueGrad)"/>
    <text x="100" y="2" fill="white" font-family="Arial" font-size="11" font-weight="bold" text-anchor="middle">CALCULADORA</text>
  </g>
  
  <!-- ============ DIÁLOGOS ============ -->
  
  <!-- Diálogo Resultado -->
  <g transform="translate(450, 500)">
    <rect x="0" y="0" width="180" height="160" rx="15" fill="#1C3A1C" filter="url(#shadow)" stroke="#34C759" stroke-width="2"/>
    
    <circle cx="90" cy="40" r="25" fill="#34C759" opacity="0.2"/>
    <text x="90" y="48" fill="#34C759" font-size="25" text-anchor="middle">✓</text>
    
    <text x="90" y="85" fill="#34C759" font-family="Arial" font-size="28" font-weight="bold" text-anchor="middle">6,41</text>
    <text x="90" y="100" fill="#888" font-family="Arial" font-size="9" text-anchor="middle">Promedio Ponderado</text>
    
    <rect x="40" y="115" width="100" height="22" rx="11" fill="#34C759"/>
    <text x="90" y="130" fill="white" font-family="Arial" font-size="10" font-weight="bold" text-anchor="middle">¡Aprobado!</text>
    
    <text x="90" y="150" fill="#34C759" font-family="Arial" font-size="7" text-anchor="middle">✅ Datos guardados</text>
    
    <!-- Etiqueta -->
    <rect x="35" y="-12" width="110" height="20" rx="4" fill="url(#greenGrad)"/>
    <text x="90" y="2" fill="white" font-family="Arial" font-size="9" font-weight="bold" text-anchor="middle">RESULTADO</text>
  </g>
  
  <!-- Diálogo Guardar Parcial -->
  <g transform="translate(450, 700)">
    <rect x="0" y="0" width="180" height="120" rx="15" fill="#3A3A1C" filter="url(#shadow)" stroke="#FF9500" stroke-width="2"/>
    
    <text x="90" y="35" fill="#FF9500" font-size="25" text-anchor="middle">💾</text>
    
    <text x="90" y="60" fill="white" font-family="Arial" font-size="11" font-weight="bold" text-anchor="middle">¿Guardar sin calcular?</text>
    <text x="90" y="75" fill="#888" font-family="Arial" font-size="8" text-anchor="middle">Se guardarán 2 notas</text>
    <text x="90" y="87" fill="#888" font-family="Arial" font-size="8" text-anchor="middle">Estado: S/I</text>
    
    <rect x="15" y="95" width="70" height="18" rx="4" fill="#3A3A3C"/>
    <text x="50" y="107" fill="white" font-family="Arial" font-size="8" text-anchor="middle">Cancelar</text>
    <rect x="95" y="95" width="70" height="18" rx="4" fill="#FF9500"/>
    <text x="130" y="107" fill="white" font-family="Arial" font-size="8" font-weight="bold" text-anchor="middle">Guardar</text>
    
    <!-- Etiqueta -->
    <rect x="25" y="-12" width="130" height="20" rx="4" fill="url(#orangeGrad)"/>
    <text x="90" y="2" fill="white" font-family="Arial" font-size="9" font-weight="bold" text-anchor="middle">GUARDAR PARCIAL</text>
  </g>
  
  <!-- Diálogo Error -->
  <g transform="translate(200, 700)">
    <rect x="0" y="0" width="180" height="100" rx="15" fill="#3A1C1C" filter="url(#shadow)" stroke="#FF3B30" stroke-width="2"/>
    
    <text x="90" y="35" fill="#FF3B30" font-size="25" text-anchor="middle">⚠️</text>
    
    <text x="90" y="58" fill="white" font-family="Arial" font-size="10" font-weight="bold" text-anchor="middle">Suma ≠ 100%</text>
    <text x="90" y="75" fill="#FF3B30" font-family="Arial" font-size="16" font-weight="bold" text-anchor="middle">70%</text>
    <text x="90" y="90" fill="#888" font-family="Arial" font-size="8" text-anchor="middle">Faltan 30% para completar</text>
    
    <!-- Etiqueta -->
    <rect x="40" y="-12" width="100" height="20" rx="4" fill="url(#redGrad)"/>
    <text x="90" y="2" fill="white" font-family="Arial" font-size="9" font-weight="bold" text-anchor="middle">ERROR</text>
  </g>
  
  <!-- ============ FLECHAS DE CONEXIÓN ============ -->
  
  <!-- Calculadora → Resultado -->
  <path d="M800 710 Q700 710 700 620 Q700 580 630 580" stroke="#34C759" stroke-width="2" fill="none" marker-end="url(#arrowGreen)" stroke-dasharray="5,3"/>
  <text x="710" y="640" fill="#34C759" font-family="Arial" font-size="9">Suma=100%</text>
  
  <!-- Calculadora → Guardar Parcial -->
  <path d="M800 760 L630 760" stroke="#FF9500" stroke-width="2" fill="none" marker-end="url(#arrowOrange)" stroke-dasharray="5,3"/>
  <text x="715" y="750" fill="#FF9500" font-family="Arial" font-size="9">Guardar sin calcular</text>
  
  <!-- Calculadora → Error -->
  <path d="M800 740 Q600 740 450 760 Q400 770 380 760" stroke="#FF3B30" stroke-width="2" fill="none" marker-end="url(#arrowBlue)" stroke-dasharray="5,3"/>
  <text x="550" y="730" fill="#FF3B30" font-family="Arial" font-size="9">Suma≠100%</text>
  
  <!-- ============ PERSISTENCIA ============ -->
  <g transform="translate(100, 550)">
    <rect x="0" y="0" width="160" height="80" rx="10" fill="#4A2C6A" filter="url(#shadow)"/>
    <text x="80" y="30" fill="white" font-size="25" text-anchor="middle">💽</text>
    <text x="80" y="50" fill="white" font-family="Arial" font-size="11" font-weight="bold" text-anchor="middle">SharedPreferences</text>
    <text x="80" y="65" fill="#888" font-family="Arial" font-size="8" text-anchor="middle">Persistencia Local • JSON</text>
  </g>
  
  <!-- Conexiones a persistencia -->
  <path d="M260 590 Q350 590 350 620 Q350 650 450 650 Q480 650 500 620" stroke="#9C27B0" stroke-width="2" fill="none" stroke-dasharray="3,3"/>
  <path d="M260 590 Q350 590 350 710 Q350 760 450 760" stroke="#9C27B0" stroke-width="2" fill="none" stroke-dasharray="3,3"/>
  
  <!-- ============ LEYENDA ============ -->
  <g transform="translate(100, 420)">
    <rect x="0" y="0" width="280" height="100" rx="10" fill="#1C1C1E" stroke="#3A3A3C"/>
    <text x="140" y="20" fill="white" font-family="Arial" font-size="11" font-weight="bold" text-anchor="middle">📋 LEYENDA</text>
    
    <line x1="20" y1="35" x2="50" y2="35" stroke="#007AFF" stroke-width="3"/>
    <text x="60" y="39" fill="#888" font-family="Arial" font-size="9">Navegación principal</text>
    
    <line x1="20" y1="55" x2="50" y2="55" stroke="#34C759" stroke-width="2" stroke-dasharray="5,3"/>
    <text x="60" y="59" fill="#888" font-family="Arial" font-size="9">Acción exitosa</text>
    
    <line x1="150" y1="35" x2="180" y2="35" stroke="#FF9500" stroke-width="2" stroke-dasharray="5,3"/>
    <text x="190" y="39" fill="#888" font-family="Arial" font-size="9">Guardado parcial</text>
    
    <line x1="150" y1="55" x2="180" y2="55" stroke="#FF3B30" stroke-width="2" stroke-dasharray="5,3"/>
    <text x="190" y="59" fill="#888" font-family="Arial" font-size="9">Error/Validación</text>
    
    <line x1="20" y1="75" x2="50" y2="75" stroke="#9C27B0" stroke-width="2" stroke-dasharray="3,3"/>
    <text x="60" y="79" fill="#888" font-family="Arial" font-size="9">Persistencia datos</text>
    
    <rect x="150" y="68" width="15" height="15" rx="3" fill="#2C2C2E" stroke="#3A3A3C"/>
    <text x="175" y="79" fill="#888" font-family="Arial" font-size="9">Pantalla/Diálogo</text>
  </g>
  
  <!-- Footer -->
  <text x="600" y="880" fill="#555" font-family="Arial" font-size="10" text-anchor="middle">
    Sistema de Gestión Académica UNAB • Flutter • Grupo 3 APTC106
  </text>
</svg>