<svg xmlns="http://www.w3.org/2000/svg" viewBox="0 0 1400 950">
  <defs>
    <!-- Gradientes -->
    <linearGradient id="splashGrad" x1="0%" y1="0%" x2="100%" y2="100%">
      <stop offset="0%" style="stop-color:#8B0088"/>
      <stop offset="100%" style="stop-color:#FF4444"/>
    </linearGradient>
    <linearGradient id="registroGrad" x1="0%" y1="0%" x2="100%" y2="100%">
      <stop offset="0%" style="stop-color:#E91E63"/>
      <stop offset="100%" style="stop-color:#9C27B0"/>
    </linearGradient>
    <linearGradient id="blueGrad" x1="0%" y1="0%" x2="100%" y2="100%">
      <stop offset="0%" style="stop-color:#007AFF"/>
      <stop offset="100%" style="stop-color:#0055CC"/>
    </linearGradient>
    <linearGradient id="greenGrad" x1="0%" y1="0%" x2="100%" y2="100%">
      <stop offset="0%" style="stop-color:#34C759"/>
      <stop offset="100%" style="stop-color:#248A3D"/>
    </linearGradient>
    <linearGradient id="orangeGrad" x1="0%" y1="0%" x2="100%" y2="100%">
      <stop offset="0%" style="stop-color:#FF9500"/>
      <stop offset="100%" style="stop-color:#CC7700"/>
    </linearGradient>
    <linearGradient id="redGrad" x1="0%" y1="0%" x2="100%" y2="100%">
      <stop offset="0%" style="stop-color:#FF3B30"/>
      <stop offset="100%" style="stop-color:#CC2F26"/>
    </linearGradient>
    <linearGradient id="firebaseGrad" x1="0%" y1="0%" x2="100%" y2="100%">
      <stop offset="0%" style="stop-color:#FFCA28"/>
      <stop offset="100%" style="stop-color:#FFA000"/>
    </linearGradient>
    
    <!-- Sombras -->
    <filter id="shadow" x="-20%" y="-20%" width="140%" height="140%">
      <feDropShadow dx="4" dy="4" stdDeviation="6" flood-color="#000" flood-opacity="0.5"/>
    </filter>
    <filter id="glow" x="-50%" y="-50%" width="200%" height="200%">
      <feGaussianBlur stdDeviation="8" result="coloredBlur"/>
      <feMerge>
        <feMergeNode in="coloredBlur"/>
        <feMergeNode in="SourceGraphic"/>
      </feMerge>
    </filter>
    
    <!-- Flechas -->
    <marker id="arrowBlue" markerWidth="12" markerHeight="12" refX="10" refY="4" orient="auto">
      <path d="M0,0 L0,8 L12,4 z" fill="#007AFF"/>
    </marker>
    <marker id="arrowGreen" markerWidth="12" markerHeight="12" refX="10" refY="4" orient="auto">
      <path d="M0,0 L0,8 L12,4 z" fill="#34C759"/>
    </marker>
    <marker id="arrowOrange" markerWidth="12" markerHeight="12" refX="10" refY="4" orient="auto">
      <path d="M0,0 L0,8 L12,4 z" fill="#FF9500"/>
    </marker>
    <marker id="arrowRed" markerWidth="12" markerHeight="12" refX="10" refY="4" orient="auto">
      <path d="M0,0 L0,8 L12,4 z" fill="#FF3B30"/>
    </marker>
    <marker id="arrowYellow" markerWidth="12" markerHeight="12" refX="10" refY="4" orient="auto">
      <path d="M0,0 L0,8 L12,4 z" fill="#FFCA28"/>
    </marker>
  </defs>
  
  <!-- Fondo -->
  <rect width="1400" height="950" fill="#0a0a0f"/>
  
  <!-- Patrón de fondo -->
  <pattern id="grid" width="40" height="40" patternUnits="userSpaceOnUse">
    <path d="M 40 0 L 0 0 0 40" fill="none" stroke="#1a1a2e" stroke-width="0.5"/>
  </pattern>
  <rect width="1400" height="950" fill="url(#grid)"/>
  
  <!-- Título -->
  <text x="700" y="50" fill="white" font-family="Arial, sans-serif" font-size="32" font-weight="bold" text-anchor="middle">
    📱 Flujo de Navegación v2.0
  </text>
  <text x="700" y="80" fill="#8E8E93" font-family="Arial, sans-serif" font-size="16" text-anchor="middle">
    Sistema de Gestión Académica • Firebase Realtime Database • Flutter
  </text>
  
  <!-- ============ PANTALLA 1: SPLASH ============ -->
  <g transform="translate(80, 130)">
    <rect x="0" y="0" width="180" height="280" rx="24" fill="url(#splashGrad)" filter="url(#shadow)"/>
    <rect x="8" y="8" width="164" height="264" rx="20" fill="#0a0a0a" stroke="#8B0088" stroke-width="1.5"/>
    
    <!-- Contenido -->
    <circle cx="90" cy="70" r="30" fill="#8B0088" opacity="0.3"/>
    <text x="90" y="78" fill="white" font-size="28" text-anchor="middle">🎓</text>
    <rect x="25" y="115" width="130" height="35" rx="8" fill="url(#splashGrad)"/>
    <text x="90" y="128" fill="white" font-family="Arial" font-size="9" font-weight="bold" text-anchor="middle">Sistema de Gestión</text>
    <text x="90" y="142" fill="white" font-family="Arial" font-size="9" font-weight="bold" text-anchor="middle">Académica</text>
    <text x="90" y="170" fill="#666" font-family="Arial" font-size="9" text-anchor="middle">Grupo 3 - APTC106</text>
    <rect x="55" y="185" width="70" height="18" rx="9" fill="url(#splashGrad)" opacity="0.6"/>
    <text x="90" y="197" fill="white" font-family="Arial" font-size="9" text-anchor="middle">v2.0.0</text>
    <rect x="30" y="225" width="120" height="4" rx="2" fill="#1a1a1a"/>
    <rect x="30" y="225" width="80" height="4" rx="2" fill="url(#splashGrad)"/>
    <text x="90" y="250" fill="#555" font-family="Arial" font-size="8" text-anchor="middle">Cargando...</text>
    
    <!-- Etiqueta -->
    <rect x="30" y="-18" width="120" height="28" rx="6" fill="url(#splashGrad)" filter="url(#glow)"/>
    <text x="90" y="-1" fill="white" font-family="Arial" font-size="11" font-weight="bold" text-anchor="middle">SPLASH SCREEN</text>
  </g>
  
  <!-- Flecha 1→2 -->
  <path d="M270 270 Q320 270 350 270 L390 270" stroke="#007AFF" stroke-width="3" fill="none" marker-end="url(#arrowBlue)"/>
  <text x="330" y="255" fill="#007AFF" font-family="Arial" font-size="10" text-anchor="middle">Firebase Auth</text>
  <text x="330" y="270" fill="#007AFF" font-family="Arial" font-size="10" text-anchor="middle">Anónimo</text>
  
  <!-- ============ PANTALLA 2: REGISTRO ============ -->
  <g transform="translate(400, 130)">
    <rect x="0" y="0" width="180" height="280" rx="24" fill="url(#registroGrad)" filter="url(#shadow)"/>
    <rect x="8" y="8" width="164" height="264" rx="20" fill="#0a0a0a" stroke="#E91E63" stroke-width="1.5"/>
    
    <!-- Contenido -->
    <circle cx="90" cy="50" r="25" fill="#E91E63" opacity="0.3"/>
    <text x="90" y="58" fill="white" font-size="22" text-anchor="middle">🎓</text>
    <text x="90" y="95" fill="white" font-family="Arial" font-size="11" font-weight="bold" text-anchor="middle">Registro Estudiante</text>
    
    <rect x="20" y="115" width="140" height="32" rx="8" fill="#1C1C1E"/>
    <text x="35" y="128" fill="#007AFF" font-size="12">🪪</text>
    <text x="55" y="135" fill="white" font-family="Arial" font-size="10">12.345.678-K</text>
    
    <rect x="20" y="155" width="140" height="32" rx="8" fill="#1C1C1E"/>
    <text x="35" y="168" fill="#007AFF" font-size="12">👤</text>
    <text x="55" y="175" fill="white" font-family="Arial" font-size="10">Juan Pérez</text>
    
    <rect x="20" y="195" width="140" height="32" rx="8" fill="#1C1C1E"/>
    <text x="30" y="215" fill="#34C759" font-family="Arial" font-size="8">Ing. Civil Informática</text>
    
    <rect x="20" y="240" width="140" height="28" rx="8" fill="#007AFF"/>
    <text x="90" y="258" fill="white" font-family="Arial" font-size="11" font-weight="bold" text-anchor="middle">Comenzar</text>
    
    <!-- Etiqueta -->
    <rect x="30" y="-18" width="120" height="28" rx="6" fill="url(#registroGrad)" filter="url(#glow)"/>
    <text x="90" y="-1" fill="white" font-family="Arial" font-size="11" font-weight="bold" text-anchor="middle">REGISTRO</text>
  </g>
  
  <!-- Flecha 2→3 -->
  <path d="M590 270 Q640 270 670 270 L710 270" stroke="#007AFF" stroke-width="3" fill="none" marker-end="url(#arrowBlue)"/>
  <text x="650" y="255" fill="#007AFF" font-family="Arial" font-size="10" text-anchor="middle">Guardar</text>
  <text x="650" y="270" fill="#007AFF" font-family="Arial" font-size="10" text-anchor="middle">en Firebase</text>
  
  <!-- ============ PANTALLA 3: HOME ============ -->
  <g transform="translate(720, 130)">
    <rect x="0" y="0" width="180" height="280" rx="24" fill="url(#blueGrad)" filter="url(#shadow)"/>
    <rect x="8" y="8" width="164" height="264" rx="20" fill="#0a0a0a" stroke="#007AFF" stroke-width="1.5"/>
    
    <!-- Header -->
    <rect x="15" y="20" width="150" height="65" rx="10" fill="linear-gradient(180deg, #152D45 0%, #1F4060 100%)"/>
    <rect x="15" y="20" width="150" height="65" rx="10" fill="#152D45"/>
    <text x="90" y="40" fill="white" font-size="18" text-anchor="middle">🎓</text>
    <text x="90" y="58" fill="white" font-family="Arial" font-size="8" font-weight="bold" text-anchor="middle">Ing. Civil Informática</text>
    <text x="90" y="72" fill="#8E8E93" font-family="Arial" font-size="7" text-anchor="middle">10 Trim • 43 Asig</text>
    
    <!-- Grid de trimestres -->
    <g transform="translate(20, 95)">
      <rect x="0" y="0" width="30" height="28" rx="6" fill="#1C1C1E" stroke="#2C2C2E"/>
      <text x="15" y="18" fill="#007AFF" font-family="Arial" font-size="12" font-weight="bold" text-anchor="middle">1</text>
      <rect x="35" y="0" width="30" height="28" rx="6" fill="#1C1C1E" stroke="#2C2C2E"/>
      <text x="50" y="18" fill="#007AFF" font-family="Arial" font-size="12" font-weight="bold" text-anchor="middle">2</text>
      <rect x="70" y="0" width="30" height="28" rx="6" fill="#1C1C1E" stroke="#2C2C2E"/>
      <text x="85" y="18" fill="#007AFF" font-family="Arial" font-size="12" font-weight="bold" text-anchor="middle">3</text>
      <rect x="105" y="0" width="30" height="28" rx="6" fill="#007AFF" stroke="#007AFF"/>
      <text x="120" y="18" fill="white" font-family="Arial" font-size="12" font-weight="bold" text-anchor="middle">7</text>
      
      <rect x="0" y="33" width="30" height="28" rx="6" fill="#1C1C1E" stroke="#2C2C2E"/>
      <text x="15" y="51" fill="#007AFF" font-family="Arial" font-size="12" font-weight="bold" text-anchor="middle">4</text>
      <rect x="35" y="33" width="30" height="28" rx="6" fill="#1C1C1E" stroke="#2C2C2E"/>
      <text x="50" y="51" fill="#007AFF" font-family="Arial" font-size="12" font-weight="bold" text-anchor="middle">5</text>
      <rect x="70" y="33" width="30" height="28" rx="6" fill="#1C1C1E" stroke="#2C2C2E"/>
      <text x="85" y="51" fill="#007AFF" font-family="Arial" font-size="12" font-weight="bold" text-anchor="middle">6</text>
      <rect x="105" y="33" width="30" height="28" rx="6" fill="#1C1C1E" stroke="#2C2C2E"/>
      <text x="120" y="51" fill="#007AFF" font-family="Arial" font-size="12" font-weight="bold" text-anchor="middle">8</text>
    </g>
    
    <!-- Stats -->
    <rect x="20" y="200" width="140" height="55" rx="10" fill="#1C1C1E"/>
    <text x="50" y="225" fill="#34C759" font-family="Arial" font-size="12" text-anchor="middle">✓5</text>
    <text x="50" y="240" fill="#666" font-family="Arial" font-size="7" text-anchor="middle">Completadas</text>
    <text x="90" y="225" fill="#FF9500" font-family="Arial" font-size="12" text-anchor="middle">⏳38</text>
    <text x="90" y="240" fill="#666" font-family="Arial" font-size="7" text-anchor="middle">Pendientes</text>
    <text x="130" y="225" fill="#007AFF" font-family="Arial" font-size="10" text-anchor="middle">11.6%</text>
    <text x="130" y="240" fill="#666" font-family="Arial" font-size="7" text-anchor="middle">Progreso</text>
    
    <!-- Etiqueta -->
    <rect x="30" y="-18" width="120" height="28" rx="6" fill="url(#blueGrad)" filter="url(#glow)"/>
    <text x="90" y="-1" fill="white" font-family="Arial" font-size="11" font-weight="bold" text-anchor="middle">VISTA PRINCIPAL</text>
  </g>
  
  <!-- Flecha 3→4 -->
  <path d="M910 270 Q960 270 990 270 L1030 270" stroke="#007AFF" stroke-width="3" fill="none" marker-end="url(#arrowBlue)"/>
  <text x="970" y="255" fill="#007AFF" font-family="Arial" font-size="10" text-anchor="middle">Tap</text>
  <text x="970" y="270" fill="#007AFF" font-family="Arial" font-size="10" text-anchor="middle">Trimestre</text>
  
  <!-- ============ PANTALLA 4: ASIGNATURAS ============ -->
  <g transform="translate(1040, 130)">
    <rect x="0" y="0" width="180" height="280" rx="24" fill="url(#blueGrad)" filter="url(#shadow)"/>
    <rect x="8" y="8" width="164" height="264" rx="20" fill="#0a0a0a" stroke="#007AFF" stroke-width="1.5"/>
    
    <!-- Header -->
    <rect x="15" y="18" width="150" height="28" rx="6" fill="#1C1C1E"/>
    <text x="28" y="36" fill="#007AFF" font-family="Arial" font-size="14">←</text>
    <text x="90" y="36" fill="white" font-family="Arial" font-size="11" font-weight="bold" text-anchor="middle">Trimestre 7</text>
    
    <!-- Asignaturas -->
    <g transform="translate(15, 55)">
      <rect x="0" y="0" width="150" height="45" rx="8" fill="#1C1C1E"/>
      <rect x="8" y="8" width="28" height="28" rx="6" fill="rgba(52,199,89,0.15)"/>
      <text x="22" y="26" fill="#34C759" font-family="Arial" font-size="7" font-weight="bold" text-anchor="middle">AACD</text>
      <text x="75" y="18" fill="#007AFF" font-family="Arial" font-size="7">AACD101</text>
      <text x="75" y="30" fill="white" font-family="Arial" font-size="7">Taller Innovación I</text>
      <rect x="115" y="12" width="28" height="18" rx="9" fill="#34C759"/>
      <text x="129" y="24" fill="white" font-family="Arial" font-size="8" font-weight="bold" text-anchor="middle">6,2</text>
      
      <rect x="0" y="50" width="150" height="45" rx="8" fill="#1C1C1E"/>
      <rect x="8" y="58" width="28" height="28" rx="6" fill="rgba(0,122,255,0.15)"/>
      <text x="22" y="76" fill="#007AFF" font-family="Arial" font-size="7" font-weight="bold" text-anchor="middle">ACIF</text>
      <text x="75" y="68" fill="#007AFF" font-family="Arial" font-size="7">ACIF103</text>
      <text x="75" y="80" fill="white" font-family="Arial" font-size="7">Optimización</text>
      <rect x="115" y="62" width="28" height="18" rx="9" fill="#3A3A3C"/>
      <text x="129" y="74" fill="white" font-family="Arial" font-size="8" font-weight="bold" text-anchor="middle">S/I</text>
      
      <rect x="0" y="100" width="150" height="45" rx="8" fill="#1C1C1E" stroke="#007AFF" stroke-width="1.5"/>
      <rect x="8" y="108" width="28" height="28" rx="6" fill="rgba(0,122,255,0.15)"/>
      <text x="22" y="126" fill="#007AFF" font-family="Arial" font-size="7" font-weight="bold" text-anchor="middle">APTC</text>
      <text x="75" y="118" fill="#007AFF" font-family="Arial" font-size="7">APTC106</text>
      <text x="75" y="130" fill="white" font-family="Arial" font-size="7">Taller Web y Móvil</text>
      <rect x="115" y="112" width="28" height="18" rx="9" fill="#3A3A3C"/>
      <text x="129" y="124" fill="white" font-family="Arial" font-size="8" font-weight="bold" text-anchor="middle">S/I</text>
      <text x="148" y="128" fill="#007AFF" font-family="Arial" font-size="10">›</text>
    </g>
    
    <text x="90" y="260" fill="#666" font-family="Arial" font-size="8" text-anchor="middle">4 asignaturas • 42 créditos</text>
    
    <!-- Etiqueta -->
    <rect x="20" y="-18" width="140" height="28" rx="6" fill="url(#blueGrad)" filter="url(#glow)"/>
    <text x="90" y="-1" fill="white" font-family="Arial" font-size="11" font-weight="bold" text-anchor="middle">VISTA ASIGNATURAS</text>
  </g>
  
  <!-- Flecha 4→5 (curva hacia abajo) -->
  <path d="M1130 420 Q1130 480 1130 520 L1130 560" stroke="#007AFF" stroke-width="3" fill="none" marker-end="url(#arrowBlue)"/>
  <text x="1155" y="490" fill="#007AFF" font-family="Arial" font-size="10">Tap</text>
  <text x="1155" y="505" fill="#007AFF" font-family="Arial" font-size="10">Asignatura</text>
  
  <!-- ============ PANTALLA 5: CALCULADORA ============ -->
  <g transform="translate(1040, 570)">
    <rect x="0" y="0" width="180" height="300" rx="24" fill="url(#blueGrad)" filter="url(#shadow)"/>
    <rect x="8" y="8" width="164" height="284" rx="20" fill="#0a0a0a" stroke="#007AFF" stroke-width="1.5"/>
    
    <!-- Header -->
    <rect x="15" y="18" width="150" height="35" rx="6" fill="#1C1C1E"/>
    <text x="28" y="35" fill="#007AFF" font-family="Arial" font-size="14">←</text>
    <text x="90" y="32" fill="white" font-family="Arial" font-size="10" font-weight="bold" text-anchor="middle">APTC106</text>
    <text x="90" y="45" fill="#666" font-family="Arial" font-size="7" text-anchor="middle">Taller Web y Móvil</text>
    
    <!-- Selector cantidad -->
    <rect x="15" y="60" width="150" height="35" rx="8" fill="#1C1C1E"/>
    <text x="28" y="82" fill="#007AFF" font-size="14">📊</text>
    <text x="60" y="82" fill="white" font-family="Arial" font-size="9">Cantidad:</text>
    <rect x="115" y="68" width="40" height="20" rx="4" fill="#2C2C2E"/>
    <text x="135" y="82" fill="white" font-family="Arial" font-size="10" font-weight="bold" text-anchor="middle">3 ▼</text>
    
    <!-- Campos de notas -->
    <g transform="translate(15, 102)">
      <rect x="0" y="0" width="26" height="32" rx="6" fill="#0F2540"/>
      <text x="13" y="20" fill="#007AFF" font-family="Arial" font-size="12" font-weight="bold" text-anchor="middle">1</text>
      <rect x="30" y="0" width="70" height="32" rx="6" fill="#2C2C2E"/>
      <text x="65" y="20" fill="white" font-family="Arial" font-size="10" text-anchor="middle">6,5</text>
      <rect x="104" y="0" width="46" height="32" rx="6" fill="#2C2C2E"/>
      <text x="127" y="20" fill="white" font-family="Arial" font-size="10" text-anchor="middle">30%</text>
      
      <rect x="0" y="37" width="26" height="32" rx="6" fill="#0F2540"/>
      <text x="13" y="57" fill="#007AFF" font-family="Arial" font-size="12" font-weight="bold" text-anchor="middle">2</text>
      <rect x="30" y="37" width="70" height="32" rx="6" fill="#2C2C2E"/>
      <text x="65" y="57" fill="white" font-family="Arial" font-size="10" text-anchor="middle">5,8</text>
      <rect x="104" y="37" width="46" height="32" rx="6" fill="#2C2C2E"/>
      <text x="127" y="57" fill="white" font-family="Arial" font-size="10" text-anchor="middle">40%</text>
      
      <rect x="0" y="74" width="26" height="32" rx="6" fill="#0F2540"/>
      <text x="13" y="94" fill="#007AFF" font-family="Arial" font-size="12" font-weight="bold" text-anchor="middle">3</text>
      <rect x="30" y="74" width="70" height="32" rx="6" fill="#2C2C2E"/>
      <text x="65" y="94" fill="#666" font-family="Arial" font-size="10" text-anchor="middle">Nota</text>
      <rect x="104" y="74" width="46" height="32" rx="6" fill="#2C2C2E"/>
      <text x="127" y="94" fill="#666" font-family="Arial" font-size="10" text-anchor="middle">%</text>
    </g>
    
    <!-- Botones -->
    <rect x="15" y="220" width="115" height="30" rx="8" fill="#007AFF"/>
    <text x="72" y="239" fill="white" font-family="Arial" font-size="9" font-weight="bold" text-anchor="middle">🧮 Calcular</text>
    <rect x="135" y="220" width="30" height="30" rx="8" fill="#1C1C1E" stroke="#3A3A3C"/>
    <text x="150" y="240" fill="#007AFF" font-family="Arial" font-size="14" text-anchor="middle">🔄</text>
    
    <rect x="15" y="255" width="150" height="26" rx="8" fill="none" stroke="#FF9500" stroke-width="1.5"/>
    <text x="90" y="272" fill="#FF9500" font-family="Arial" font-size="9" text-anchor="middle">💾 Guardar sin Calcular</text>
    
    <!-- Etiqueta -->
    <rect x="15" y="-18" width="150" height="28" rx="6" fill="url(#blueGrad)" filter="url(#glow)"/>
    <text x="90" y="-1" fill="white" font-family="Arial" font-size="10" font-weight="bold" text-anchor="middle">CALCULADORA</text>
  </g>
  
  <!-- ============ DIÁLOGOS ============ -->
  
  <!-- Diálogo Resultado Aprobado -->
  <g transform="translate(700, 520)">
    <rect x="0" y="0" width="180" height="170" rx="16" fill="#1B3B1B" filter="url(#shadow)" stroke="#34C759" stroke-width="2"/>
    
    <circle cx="90" cy="45" r="25" fill="#34C759" opacity="0.2"/>
    <text x="90" y="52" fill="#34C759" font-size="26" text-anchor="middle">✓</text>
    
    <text x="90" y="90" fill="#34C759" font-family="Arial" font-size="32" font-weight="bold" text-anchor="middle">6,21</text>
    <text x="90" y="105" fill="#8E8E93" font-family="Arial" font-size="9" text-anchor="middle">Promedio Final</text>
    
    <rect x="45" y="115" width="90" height="24" rx="12" fill="#34C759"/>
    <text x="90" y="131" fill="white" font-family="Arial" font-size="11" font-weight="bold" text-anchor="middle">¡Aprobado!</text>
    
    <text x="90" y="155" fill="#34C759" font-family="Arial" font-size="8" text-anchor="middle">✅ Datos guardados</text>
    
    <!-- Etiqueta -->
    <rect x="40" y="-15" width="100" height="24" rx="5" fill="url(#greenGrad)"/>
    <text x="90" y="1" fill="white" font-family="Arial" font-size="10" font-weight="bold" text-anchor="middle">RESULTADO</text>
  </g>
  
  <!-- Diálogo Examen Requerido -->
  <g transform="translate(700, 720)">
    <rect x="0" y="0" width="180" height="130" rx="16" fill="#3B1B1B" filter="url(#shadow)" stroke="#FF453A" stroke-width="2"/>
    
    <text x="25" y="35" fill="#FF453A" font-size="22">⚠️</text>
    <text x="55" y="35" fill="white" font-family="Arial" font-size="12" font-weight="bold">¡Examen!</text>
    
    <text x="15" y="60" fill="#8E8E93" font-family="Arial" font-size="9">Prom. presentación: 4,85</text>
    <text x="15" y="80" fill="white" font-family="Arial" font-size="10" font-weight="bold">Necesitas: </text>
    <text x="85" y="80" fill="#FF9500" font-family="Arial" font-size="14" font-weight="bold">4,30</text>
    <text x="15" y="95" fill="#8E8E93" font-family="Arial" font-size="8">en el examen para aprobar</text>
    
    <rect x="15" y="102" width="150" height="20" rx="5" fill="#007AFF"/>
    <text x="90" y="116" fill="white" font-family="Arial" font-size="9" text-anchor="middle">Entendido</text>
    
    <!-- Etiqueta -->
    <rect x="25" y="-15" width="130" height="24" rx="5" fill="url(#redGrad)"/>
    <text x="90" y="1" fill="white" font-family="Arial" font-size="10" font-weight="bold" text-anchor="middle">EXAMEN REQUERIDO</text>
  </g>
  
  <!-- Diálogo Guardado Parcial -->
  <g transform="translate(400, 720)">
    <rect x="0" y="0" width="180" height="120" rx="16" fill="#2C2C2E" filter="url(#shadow)" stroke="#FF9500" stroke-width="2"/>
    
    <text x="90" y="40" fill="#FF9500" font-size="28" text-anchor="middle">💾</text>
    
    <text x="90" y="65" fill="white" font-family="Arial" font-size="13" font-weight="bold" text-anchor="middle">Datos Guardados</text>
    <text x="90" y="82" fill="#8E8E93" font-family="Arial" font-size="9" text-anchor="middle">2 notas guardadas parcialmente</text>
    
    <rect x="40" y="92" width="100" height="20" rx="5" fill="#FF9500"/>
    <text x="90" y="106" fill="white" font-family="Arial" font-size="10" font-weight="bold" text-anchor="middle">Aceptar</text>
    
    <!-- Etiqueta -->
    <rect x="30" y="-15" width="120" height="24" rx="5" fill="url(#orangeGrad)"/>
    <text x="90" y="1" fill="white" font-family="Arial" font-size="10" font-weight="bold" text-anchor="middle">GUARDAR PARCIAL</text>
  </g>
  
  <!-- ============ FIREBASE CLOUD ============ -->
  <g transform="translate(80, 580)">
    <rect x="0" y="0" width="200" height="100" rx="16" fill="#2C2C2E" filter="url(#shadow)" stroke="#FFCA28" stroke-width="2"/>
    
    <text x="100" y="35" fill="#FFCA28" font-size="28" text-anchor="middle">☁️🔥</text>
    <text x="100" y="58" fill="white" font-family="Arial" font-size="12" font-weight="bold" text-anchor="middle">Firebase Realtime DB</text>
    <text x="100" y="75" fill="#8E8E93" font-family="Arial" font-size="9" text-anchor="middle">Sincronización en tiempo real</text>
    <text x="100" y="90" fill="#8E8E93" font-family="Arial" font-size="8" text-anchor="middle">Auth Anónimo • App Check</text>
    
    <!-- Etiqueta -->
    <rect x="45" y="-15" width="110" height="24" rx="5" fill="url(#firebaseGrad)"/>
    <text x="100" y="1" fill="white" font-family="Arial" font-size="10" font-weight="bold" text-anchor="middle">PERSISTENCIA</text>
  </g>
  
  <!-- ============ CONEXIONES ============ -->
  
  <!-- Calculadora → Resultado -->
  <path d="M1040 720 Q950 720 950 640 Q950 600 880 600" stroke="#34C759" stroke-width="2.5" fill="none" marker-end="url(#arrowGreen)" stroke-dasharray="6,4"/>
  <text x="960" y="660" fill="#34C759" font-family="Arial" font-size="9">Suma=100%</text>
  
  <!-- Calculadora → Guardar Parcial -->
  <path d="M1040 760 Q900 760 700 760 Q620 760 580 760" stroke="#FF9500" stroke-width="2.5" fill="none" marker-end="url(#arrowOrange)" stroke-dasharray="6,4"/>
  <text x="800" y="745" fill="#FF9500" font-family="Arial" font-size="9">Guardar sin calcular</text>
  
  <!-- Calculadora → Examen -->
  <path d="M1040 800 Q970 800 920 790 Q880 785 880 785" stroke="#FF3B30" stroke-width="2.5" fill="none" marker-end="url(#arrowRed)" stroke-dasharray="6,4"/>
  <text x="960" y="815" fill="#FF3B30" font-family="Arial" font-size="9">Prom &lt; 5.5</text>
  
  <!-- Firebase conexiones -->
  <path d="M280 630 Q340 630 380 680 Q400 720 400 720" stroke="#FFCA28" stroke-width="2" fill="none" stroke-dasharray="4,3"/>
  <path d="M280 630 Q340 630 400 580 Q500 520 700 570" stroke="#FFCA28" stroke-width="2" fill="none" stroke-dasharray="4,3"/>
  <path d="M180 580 Q180 500 180 420 Q180 350 350 320 Q400 310 400 310" stroke="#FFCA28" stroke-width="2" fill="none" stroke-dasharray="4,3"/>
  
  <!-- ============ LEYENDA ============ -->
  <g transform="translate(80, 480)">
    <rect x="0" y="0" width="280" height="85" rx="10" fill="#1C1C1E" stroke="#3A3A3C"/>
    <text x="140" y="20" fill="white" font-family="Arial" font-size="12" font-weight="bold" text-anchor="middle">📋 LEYENDA</text>
    
    <line x1="15" y1="38" x2="50" y2="38" stroke="#007AFF" stroke-width="3"/>
    <text x="60" y="42" fill="#8E8E93" font-family="Arial" font-size="9">Navegación principal</text>
    
    <line x1="15" y1="55" x2="50" y2="55" stroke="#34C759" stroke-width="2.5" stroke-dasharray="6,4"/>
    <text x="60" y="59" fill="#8E8E93" font-family="Arial" font-size="9">Acción exitosa</text>
    
    <line x1="145" y1="38" x2="180" y2="38" stroke="#FF9500" stroke-width="2.5" stroke-dasharray="6,4"/>
    <text x="190" y="42" fill="#8E8E93" font-family="Arial" font-size="9">Guardado parcial</text>
    
    <line x1="145" y1="55" x2="180" y2="55" stroke="#FF3B30" stroke-width="2.5" stroke-dasharray="6,4"/>
    <text x="190" y="59" fill="#8E8E93" font-family="Arial" font-size="9">Error/Validación</text>
    
    <line x1="15" y1="72" x2="50" y2="72" stroke="#FFCA28" stroke-width="2" stroke-dasharray="4,3"/>
    <text x="60" y="76" fill="#8E8E93" font-family="Arial" font-size="9">Firebase sync</text>
  </g>
  
  <!-- Footer -->
  <text x="700" y="920" fill="#666" font-family="Arial, sans-serif" font-size="14" text-anchor="middle">
    Sistema de Gestión Académica v2.0.0 • Flutter + Firebase • Grupo 3 APTC106 • Diciembre 2025
  </text>
</svg>
